<mxfile host="app.diagrams.net" modified="2024-01-22T12:39:57.301Z" agent="Mozilla/5.0 (Windows NT 10.0; Win64; x64) AppleWebKit/537.36 (KHTML, like Gecko) Chrome/120.0.0.0 Safari/537.36" version="22.1.21" etag="f0fiKYLibBzTzk8wOTPU" type="github">
  <diagram name="Page-1" id="n74vpP9iQx1jJWLi2taX">
    <mxGraphModel>
      <root>
        <mxCell id="0" />
        <mxCell id="1" parent="0" />
      </root>
    </mxGraphModel>
  </diagram>
</mxfile>
